<svg width="707" height="242" viewBox="0 0 707 242" fill="none" xmlns="http://www.w3.org/2000/svg">
<g filter="url(#filter0_f_1_35)">
<path d="M195.367 203V56H246.767V78.2H216.967V116.8H236.967V139H216.967V203H195.367ZM255.523 203V56H277.123V203H255.523ZM293.219 203V56H314.819C327.752 56 337.285 59.6 343.419 66.8C349.552 73.9334 352.619 84.4667 352.619 98.4C352.619 106.667 351.152 113.833 348.219 119.9C345.352 125.9 341.852 130.3 337.719 133.1L352.419 203H330.819L318.619 141H314.819V203H293.219ZM314.819 121C318.819 121 321.985 120.133 324.319 118.4C326.652 116.6 328.319 114.067 329.319 110.8C330.319 107.533 330.819 103.667 330.819 99.2C330.819 92.2 329.652 86.8334 327.319 83.1C325.052 79.3 320.885 77.4 314.819 77.4V121ZM364.703 203V56H414.103V78.2H386.303V117.8H406.303V139.4H386.303V180.8H414.103V203H364.703ZM460.992 203V56H512.392V78.2H482.592V116.8H502.592V139H482.592V203H460.992ZM521.148 203V56H542.748V183H571.348V203H521.148ZM580.133 203V56H601.733V203H580.133ZM612.828 203L636.628 125.8L613.228 56H634.428L646.228 93.2L646.828 96H647.628L648.228 93.2L660.028 56H681.228L657.828 125.8L681.628 203H660.428L648.028 159.2L647.628 156.4H646.828L646.428 159.2L634.028 203H612.828Z" fill="url(#paint0_linear_1_35)" fill-opacity="0.8"/>
</g>
<g filter="url(#filter1_d_1_35)">
<mask id="path-2-outside-1_1_35" maskUnits="userSpaceOnUse" x="194" y="48" width="489" height="149" fill="black">
<rect fill="white" x="194" y="48" width="489" height="149"/>
<path d="M195 196V49H246.4V71.2H216.6V109.8H236.6V132H216.6V196H195ZM255.156 196V49H276.756V196H255.156ZM292.852 196V49H314.452C327.385 49 336.918 52.6 343.052 59.8C349.185 66.9334 352.252 77.4667 352.252 91.4C352.252 99.6667 350.785 106.833 347.852 112.9C344.985 118.9 341.485 123.3 337.352 126.1L352.052 196H330.452L318.252 134H314.452V196H292.852ZM314.452 114C318.452 114 321.618 113.133 323.952 111.4C326.285 109.6 327.952 107.067 328.952 103.8C329.952 100.533 330.452 96.6667 330.452 92.2C330.452 85.2 329.285 79.8334 326.952 76.1C324.685 72.3 320.518 70.4 314.452 70.4V114ZM364.336 196V49H413.736V71.2H385.936V110.8H405.936V132.4H385.936V173.8H413.736V196H364.336ZM460.625 196V49H512.025V71.2H482.225V109.8H502.225V132H482.225V196H460.625ZM520.781 196V49H542.381V176H570.981V196H520.781ZM579.766 196V49H601.366V196H579.766ZM612.461 196L636.261 118.8L612.861 49H634.061L645.861 86.2L646.461 89H647.261L647.861 86.2L659.661 49H680.861L657.461 118.8L681.261 196H660.061L647.661 152.2L647.261 149.4H646.461L646.061 152.2L633.661 196H612.461Z"/>
</mask>
<path d="M195 196V49H246.4V71.2H216.6V109.8H236.6V132H216.6V196H195ZM255.156 196V49H276.756V196H255.156ZM292.852 196V49H314.452C327.385 49 336.918 52.6 343.052 59.8C349.185 66.9334 352.252 77.4667 352.252 91.4C352.252 99.6667 350.785 106.833 347.852 112.9C344.985 118.9 341.485 123.3 337.352 126.1L352.052 196H330.452L318.252 134H314.452V196H292.852ZM314.452 114C318.452 114 321.618 113.133 323.952 111.4C326.285 109.6 327.952 107.067 328.952 103.8C329.952 100.533 330.452 96.6667 330.452 92.2C330.452 85.2 329.285 79.8334 326.952 76.1C324.685 72.3 320.518 70.4 314.452 70.4V114ZM364.336 196V49H413.736V71.2H385.936V110.8H405.936V132.4H385.936V173.8H413.736V196H364.336ZM460.625 196V49H512.025V71.2H482.225V109.8H502.225V132H482.225V196H460.625ZM520.781 196V49H542.381V176H570.981V196H520.781ZM579.766 196V49H601.366V196H579.766ZM612.461 196L636.261 118.8L612.861 49H634.061L645.861 86.2L646.461 89H647.261L647.861 86.2L659.661 49H680.861L657.461 118.8L681.261 196H660.061L647.661 152.2L647.261 149.4H646.461L646.061 152.2L633.661 196H612.461Z" fill="url(#paint1_linear_1_35)" fill-opacity="0.8" shape-rendering="crispEdges"/>
<path d="M195 196H194V197H195V196ZM195 49V48H194V49H195ZM246.4 49H247.4V48H246.4V49ZM246.4 71.2V72.2H247.4V71.2H246.4ZM216.6 71.2V70.2H215.6V71.2H216.6ZM216.6 109.8H215.6V110.8H216.6V109.8ZM236.6 109.8H237.6V108.8H236.6V109.8ZM236.6 132V133H237.6V132H236.6ZM216.6 132V131H215.6V132H216.6ZM216.6 196V197H217.6V196H216.6ZM196 196V49H194V196H196ZM195 50H246.4V48H195V50ZM245.4 49V71.2H247.4V49H245.4ZM246.4 70.2H216.6V72.2H246.4V70.2ZM215.6 71.2V109.8H217.6V71.2H215.6ZM216.6 110.8H236.6V108.8H216.6V110.8ZM235.6 109.8V132H237.6V109.8H235.6ZM236.6 131H216.6V133H236.6V131ZM215.6 132V196H217.6V132H215.6ZM216.6 195H195V197H216.6V195ZM255.156 196H254.156V197H255.156V196ZM255.156 49V48H254.156V49H255.156ZM276.756 49H277.756V48H276.756V49ZM276.756 196V197H277.756V196H276.756ZM256.156 196V49H254.156V196H256.156ZM255.156 50H276.756V48H255.156V50ZM275.756 49V196H277.756V49H275.756ZM276.756 195H255.156V197H276.756V195ZM292.852 196H291.852V197H292.852V196ZM292.852 49V48H291.852V49H292.852ZM343.052 59.8L342.29 60.4485L342.293 60.452L343.052 59.8ZM347.852 112.9L346.951 112.465L346.949 112.469L347.852 112.9ZM337.352 126.1L336.791 125.272L336.235 125.649L336.373 126.306L337.352 126.1ZM352.052 196V197H353.284L353.03 195.794L352.052 196ZM330.452 196L329.47 196.193L329.629 197H330.452V196ZM318.252 134L319.233 133.807L319.074 133H318.252V134ZM314.452 134V133H313.452V134H314.452ZM314.452 196V197H315.452V196H314.452ZM314.452 114H313.452V115H314.452V114ZM323.952 111.4L324.548 112.203L324.555 112.197L324.562 112.192L323.952 111.4ZM328.952 103.8L327.995 103.507L327.995 103.507L328.952 103.8ZM326.952 76.1L326.093 76.6123L326.098 76.6212L326.104 76.63L326.952 76.1ZM314.452 70.4V69.4H313.452V70.4H314.452ZM293.852 196V49H291.852V196H293.852ZM292.852 50H314.452V48H292.852V50ZM314.452 50C327.205 50 336.41 53.5453 342.29 60.4485L343.813 59.1516C337.427 51.6548 327.565 48 314.452 48V50ZM342.293 60.452C348.211 67.3341 351.252 77.5941 351.252 91.4H353.252C353.252 77.3393 350.159 66.5326 343.81 59.1481L342.293 60.452ZM351.252 91.4C351.252 99.5495 349.806 106.561 346.951 112.465L348.752 113.335C351.764 107.106 353.252 99.7839 353.252 91.4H351.252ZM346.949 112.469C344.135 118.36 340.736 122.599 336.791 125.272L337.912 126.928C342.234 124.001 345.835 119.44 348.754 113.331L346.949 112.469ZM336.373 126.306L351.073 196.206L353.03 195.794L338.33 125.894L336.373 126.306ZM352.052 195H330.452V197H352.052V195ZM331.433 195.807L319.233 133.807L317.27 134.193L329.47 196.193L331.433 195.807ZM318.252 133H314.452V135H318.252V133ZM313.452 134V196H315.452V134H313.452ZM314.452 195H292.852V197H314.452V195ZM314.452 115C318.587 115 321.988 114.105 324.548 112.203L323.355 110.597C321.249 112.162 318.316 113 314.452 113V115ZM324.562 112.192C327.085 110.246 328.857 107.525 329.908 104.093L327.995 103.507C327.046 106.608 325.485 108.954 323.341 110.608L324.562 112.192ZM329.908 104.093C330.944 100.707 331.452 96.7372 331.452 92.2H329.452C329.452 96.5961 328.959 100.359 327.995 103.507L329.908 104.093ZM331.452 92.2C331.452 85.1133 330.275 79.5303 327.8 75.57L326.104 76.63C328.295 80.1365 329.452 85.2867 329.452 92.2H331.452ZM327.81 75.5878C325.299 71.3778 320.724 69.4 314.452 69.4V71.4C320.312 71.4 324.071 73.2222 326.093 76.6123L327.81 75.5878ZM313.452 70.4V114H315.452V70.4H313.452ZM364.336 196H363.336V197H364.336V196ZM364.336 49V48H363.336V49H364.336ZM413.736 49H414.736V48H413.736V49ZM413.736 71.2V72.2H414.736V71.2H413.736ZM385.936 71.2V70.2H384.936V71.2H385.936ZM385.936 110.8H384.936V111.8H385.936V110.8ZM405.936 110.8H406.936V109.8H405.936V110.8ZM405.936 132.4V133.4H406.936V132.4H405.936ZM385.936 132.4V131.4H384.936V132.4H385.936ZM385.936 173.8H384.936V174.8H385.936V173.8ZM413.736 173.8H414.736V172.8H413.736V173.8ZM413.736 196V197H414.736V196H413.736ZM365.336 196V49H363.336V196H365.336ZM364.336 50H413.736V48H364.336V50ZM412.736 49V71.2H414.736V49H412.736ZM413.736 70.2H385.936V72.2H413.736V70.2ZM384.936 71.2V110.8H386.936V71.2H384.936ZM385.936 111.8H405.936V109.8H385.936V111.8ZM404.936 110.8V132.4H406.936V110.8H404.936ZM405.936 131.4H385.936V133.4H405.936V131.4ZM384.936 132.4V173.8H386.936V132.4H384.936ZM385.936 174.8H413.736V172.8H385.936V174.8ZM412.736 173.8V196H414.736V173.8H412.736ZM413.736 195H364.336V197H413.736V195ZM460.625 196H459.625V197H460.625V196ZM460.625 49V48H459.625V49H460.625ZM512.025 49H513.025V48H512.025V49ZM512.025 71.2V72.2H513.025V71.2H512.025ZM482.225 71.2V70.2H481.225V71.2H482.225ZM482.225 109.8H481.225V110.8H482.225V109.8ZM502.225 109.8H503.225V108.8H502.225V109.8ZM502.225 132V133H503.225V132H502.225ZM482.225 132V131H481.225V132H482.225ZM482.225 196V197H483.225V196H482.225ZM461.625 196V49H459.625V196H461.625ZM460.625 50H512.025V48H460.625V50ZM511.025 49V71.2H513.025V49H511.025ZM512.025 70.2H482.225V72.2H512.025V70.2ZM481.225 71.2V109.8H483.225V71.2H481.225ZM482.225 110.8H502.225V108.8H482.225V110.8ZM501.225 109.8V132H503.225V109.8H501.225ZM502.225 131H482.225V133H502.225V131ZM481.225 132V196H483.225V132H481.225ZM482.225 195H460.625V197H482.225V195ZM520.781 196H519.781V197H520.781V196ZM520.781 49V48H519.781V49H520.781ZM542.381 49H543.381V48H542.381V49ZM542.381 176H541.381V177H542.381V176ZM570.981 176H571.981V175H570.981V176ZM570.981 196V197H571.981V196H570.981ZM521.781 196V49H519.781V196H521.781ZM520.781 50H542.381V48H520.781V50ZM541.381 49V176H543.381V49H541.381ZM542.381 177H570.981V175H542.381V177ZM569.981 176V196H571.981V176H569.981ZM570.981 195H520.781V197H570.981V195ZM579.766 196H578.766V197H579.766V196ZM579.766 49V48H578.766V49H579.766ZM601.366 49H602.366V48H601.366V49ZM601.366 196V197H602.366V196H601.366ZM580.766 196V49H578.766V196H580.766ZM579.766 50H601.366V48H579.766V50ZM600.366 49V196H602.366V49H600.366ZM601.366 195H579.766V197H601.366V195ZM612.461 196L611.505 195.705L611.106 197H612.461V196ZM636.261 118.8L637.217 119.095L637.311 118.787L637.209 118.482L636.261 118.8ZM612.861 49V48H611.471L611.913 49.3179L612.861 49ZM634.061 49L635.014 48.6977L634.793 48H634.061V49ZM645.861 86.2L646.839 85.9905L646.829 85.9435L646.814 85.8977L645.861 86.2ZM646.461 89L645.483 89.2096L645.653 90H646.461V89ZM647.261 89V90H648.069L648.239 89.2096L647.261 89ZM647.861 86.2L646.908 85.8977L646.893 85.9435L646.883 85.9905L647.861 86.2ZM659.661 49V48H658.929L658.708 48.6977L659.661 49ZM680.861 49L681.809 49.3179L682.251 48H680.861V49ZM657.461 118.8L656.513 118.482L656.411 118.787L656.505 119.095L657.461 118.8ZM681.261 196V197H682.616L682.217 195.705L681.261 196ZM660.061 196L659.099 196.272L659.305 197H660.061V196ZM647.661 152.2L646.671 152.341L646.68 152.408L646.699 152.472L647.661 152.2ZM647.261 149.4L648.251 149.259L648.128 148.4H647.261V149.4ZM646.461 149.4V148.4H645.594L645.471 149.259L646.461 149.4ZM646.061 152.2L647.023 152.472L647.041 152.408L647.051 152.341L646.061 152.2ZM633.661 196V197H634.417L634.623 196.272L633.661 196ZM613.417 196.295L637.217 119.095L635.305 118.505L611.505 195.705L613.417 196.295ZM637.209 118.482L613.809 48.6822L611.913 49.3179L635.313 119.118L637.209 118.482ZM612.861 50H634.061V48H612.861V50ZM633.108 49.3024L644.908 86.5024L646.814 85.8977L635.014 48.6977L633.108 49.3024ZM644.883 86.4096L645.483 89.2096L647.439 88.7905L646.839 85.9905L644.883 86.4096ZM646.461 90H647.261V88H646.461V90ZM648.239 89.2096L648.839 86.4096L646.883 85.9905L646.283 88.7905L648.239 89.2096ZM648.814 86.5024L660.614 49.3024L658.708 48.6977L646.908 85.8977L648.814 86.5024ZM659.661 50H680.861V48H659.661V50ZM679.913 48.6822L656.513 118.482L658.409 119.118L681.809 49.3179L679.913 48.6822ZM656.505 119.095L680.305 196.295L682.217 195.705L658.417 118.505L656.505 119.095ZM681.261 195H660.061V197H681.261V195ZM661.023 195.728L648.623 151.928L646.699 152.472L659.099 196.272L661.023 195.728ZM648.651 152.059L648.251 149.259L646.271 149.541L646.671 152.341L648.651 152.059ZM647.261 148.4H646.461V150.4H647.261V148.4ZM645.471 149.259L645.071 152.059L647.051 152.341L647.451 149.541L645.471 149.259ZM645.099 151.928L632.699 195.728L634.623 196.272L647.023 152.472L645.099 151.928ZM633.661 195H612.461V197H633.661V195Z" fill="white" fill-opacity="0.5" mask="url(#path-2-outside-1_1_35)"/>
</g>
<g clip-path="url(#clip0_1_35)" filter="url(#filter2_f_1_35)">
<path d="M146.299 113.433C144.877 111.057 136.141 73.3726 110.609 75.6768C81.1945 78.3312 69.6296 73.3265 61.3965 59.1435C61.724 59.7224 61.2697 90.2572 76.8397 95.8898C100.979 104.586 102.989 121.302 94.2088 124.908C79.4601 130.974 70.5074 112.31 70.0828 106.503C62.5643 109.988 57.0253 119.292 56.5754 127.724C55.2536 153.138 92.0165 154.694 90.3527 173.2C89.0941 187.296 65.3182 175.256 65.267 175.078C96.1524 259.543 202.49 198.51 170.434 131.84C160.809 111.854 171.66 91.3532 172.354 91.2695C149.212 93.7395 146.662 114.04 146.299 113.433ZM144.392 186.851C119.66 202.923 110.884 182.367 110.615 174.219C110.26 163.851 120.246 155.783 108.683 149.091C108.847 149.201 121.666 143.934 133.761 147.218C152.287 152.21 163.72 174.265 144.392 186.851ZM78.7549 55.3221C75.7415 50.2876 76.9467 42.9936 79.7258 35.0356C82.6951 38.7334 83.3517 46.552 88.4094 49.5433C92.2382 51.7056 97.4212 53.6432 99.0284 56.3285C101.182 59.9265 101.809 64.0053 99.9895 68.8901C90.0328 59.4836 84.6188 63.2162 78.7549 55.3221Z" fill="url(#paint2_linear_1_35)" fill-opacity="0.8"/>
</g>
<g clip-path="url(#clip1_1_35)">
<path d="M141.172 105.083C139.741 102.693 130.951 64.7734 105.261 67.092C75.6627 69.7629 64.0258 64.7271 55.7415 50.4557C56.0709 51.0382 55.6138 81.7631 71.2808 87.4308C95.5703 96.1809 97.5932 113.002 88.7581 116.63C73.9175 122.734 64.909 103.953 64.4819 98.1096C56.9165 101.617 51.343 110.979 50.8903 119.464C49.5602 145.035 86.5521 146.601 84.8779 165.222C83.6115 179.406 59.6875 167.291 59.6361 167.112C90.7137 252.103 197.713 190.69 165.458 123.605C155.773 103.494 166.692 82.8659 167.389 82.7817C144.104 85.2671 141.537 105.694 141.172 105.083ZM139.253 178.958C114.368 195.131 105.537 174.447 105.266 166.248C104.909 155.815 114.957 147.697 103.323 140.963C103.487 141.074 116.386 135.774 128.557 139.078C147.198 144.102 158.702 166.294 139.253 178.958ZM73.2079 46.6105C70.1758 41.5447 71.3885 34.2053 74.1848 26.1977C77.1726 29.9186 77.8334 37.7858 82.9225 40.7958C86.7752 42.9715 91.9904 44.9212 93.6077 47.6232C95.7747 51.2436 96.4053 55.3478 94.5747 60.263C84.556 50.7979 79.1083 54.5538 73.2079 46.6105Z" fill="url(#paint3_linear_1_35)" fill-opacity="0.8"/>
</g>
<defs>
<filter id="filter0_f_1_35" x="170.367" y="31" width="536.261" height="197" filterUnits="userSpaceOnUse" color-interpolation-filters="sRGB">
<feFlood flood-opacity="0" result="BackgroundImageFix"/>
<feBlend mode="normal" in="SourceGraphic" in2="BackgroundImageFix" result="shape"/>
<feGaussianBlur stdDeviation="12.5" result="effect1_foregroundBlur_1_35"/>
</filter>
<filter id="filter1_d_1_35" x="190" y="44" width="506.261" height="167" filterUnits="userSpaceOnUse" color-interpolation-filters="sRGB">
<feFlood flood-opacity="0" result="BackgroundImageFix"/>
<feColorMatrix in="SourceAlpha" type="matrix" values="0 0 0 0 0 0 0 0 0 0 0 0 0 0 0 0 0 0 127 0" result="hardAlpha"/>
<feOffset dx="5" dy="5"/>
<feGaussianBlur stdDeviation="5"/>
<feComposite in2="hardAlpha" operator="out"/>
<feColorMatrix type="matrix" values="0 0 0 0 0 0 0 0 0 0 0 0 0 0 0 0 0 0 0.25 0"/>
<feBlend mode="normal" in2="BackgroundImageFix" result="effect1_dropShadow_1_35"/>
<feBlend mode="normal" in="SourceGraphic" in2="effect1_dropShadow_1_35" result="shape"/>
</filter>
<filter id="filter2_f_1_35" x="-10" y="-7" width="242.776" height="258.462" filterUnits="userSpaceOnUse" color-interpolation-filters="sRGB">
<feFlood flood-opacity="0" result="BackgroundImageFix"/>
<feBlend mode="normal" in="SourceGraphic" in2="BackgroundImageFix" result="shape"/>
<feGaussianBlur stdDeviation="8" result="effect1_foregroundBlur_1_35"/>
</filter>
<linearGradient id="paint0_linear_1_35" x1="436" y1="9.00003" x2="436" y2="193" gradientUnits="userSpaceOnUse">
<stop offset="0.555" stop-color="white"/>
<stop offset="1" stop-color="#FF0000"/>
</linearGradient>
<linearGradient id="paint1_linear_1_35" x1="436" y1="2.00003" x2="436" y2="242" gradientUnits="userSpaceOnUse">
<stop offset="0.555"/>
<stop offset="1" stop-color="#FF0000"/>
</linearGradient>
<linearGradient id="paint2_linear_1_35" x1="64.5703" y1="44.1069" x2="158.123" y2="200.405" gradientUnits="userSpaceOnUse">
<stop offset="0.22" stop-color="white"/>
<stop offset="1" stop-color="#520000"/>
</linearGradient>
<linearGradient id="paint3_linear_1_35" x1="58.935" y1="35.3255" x2="153.07" y2="192.597" gradientUnits="userSpaceOnUse">
<stop offset="0.22" stop-color="#FF0707"/>
<stop offset="1"/>
</linearGradient>
<clipPath id="clip0_1_35">
<rect width="136.618" height="182.157" fill="white" transform="translate(6 79.1643) rotate(-30.9027)"/>
</clipPath>
<clipPath id="clip1_1_35">
<rect width="137.468" height="183.291" fill="white" transform="translate(0 70.6012) rotate(-30.9027)"/>
</clipPath>
</defs>
</svg>
